<svg width="186" height="280" viewBox="0 0 186 280" fill="none" xmlns="http://www.w3.org/2000/svg">
<path d="M157.227 89.8537C160.438 55.6537 147.56 42.1304 141.563 36.6104C135.512 31.0412 125.974 25.1116 112.827 22.0539C91.0197 16.9819 72.3653 21.7067 57.3601 31.7987C42.291 41.9338 30.25 59.4587 24.8781 84.444C19.7141 108.458 23.2909 124.546 29.4742 138.026C35.4094 150.965 46.9063 162.555 67.191 168.812C90.893 176.123 112.828 173.682 130.827 155.854C148.827 138.026 152.386 125.854 157.227 89.8537ZM157.227 89.8537L165.801 34.4L159.2 89.8537C144.75 206.457 127.105 286.713 20 250.054" stroke="#2E2866" stroke-width="40" stroke-linecap="round" stroke-linejoin="round"/>
</svg>
